<svg width="438" height="697" viewBox="0 0 438 697" fill="none" xmlns="http://www.w3.org/2000/svg">
<path d="M209.673 696.128C325.472 696.128 419.346 679.086 419.346 658.064C419.346 637.042 325.472 620 209.673 620C93.8739 620 0 637.042 0 658.064C0 679.086 93.8739 696.128 209.673 696.128Z" fill="#545454"/>
<path d="M122.114 388.489V599.796L33.5793 517.262V305.941L122.114 388.489Z" fill="#F2F0DA"/>
<path d="M333.436 388.489H122.114V599.797H333.436V388.489Z" fill="#F2F0DA"/>
<path d="M333.436 388.489H122.114L33.5793 305.941H244.887L333.436 388.489Z" fill="#F2F0DA"/>
<path d="M122.116 606.809C120.375 606.809 118.657 606.16 117.333 604.926L28.7977 522.392C27.3746 521.067 26.5664 519.208 26.5664 517.262V305.941C26.5664 303.149 28.2226 300.623 30.7824 299.51C33.3431 298.394 36.3196 298.908 38.3617 300.811L126.897 383.36C128.32 384.687 129.128 386.545 129.128 388.49V599.797C129.128 602.588 127.472 605.114 124.912 606.227C124.012 606.619 123.061 606.809 122.116 606.809ZM40.5926 514.212L115.102 583.67V391.539L40.5926 322.068V514.212Z" fill="#3C0C47"/>
<path d="M333.436 606.809H122.115C118.242 606.809 115.101 603.67 115.101 599.796V388.489C115.101 384.616 118.242 381.476 122.115 381.476H333.436C337.309 381.476 340.449 384.616 340.449 388.489V599.796C340.449 603.67 337.309 606.809 333.436 606.809ZM129.128 592.783H326.423V395.503H129.128V592.783Z" fill="#3C0C47"/>
<path d="M333.436 395.503H122.115C120.339 395.503 118.631 394.83 117.332 393.619L28.7965 311.071C26.6892 309.105 25.9982 306.052 27.0534 303.372C28.1096 300.691 30.6979 298.928 33.5789 298.928H244.887C246.662 298.928 248.371 299.6 249.669 300.811L338.218 383.36C340.326 385.324 341.017 388.379 339.961 391.059C338.906 393.74 336.317 395.503 333.436 395.503ZM124.877 381.477H315.629L242.125 312.954H51.3848L124.877 381.477Z" fill="#3C0C47"/>
<path d="M207.401 452.205C209.476 439.417 200.793 427.369 188.005 425.294C175.218 423.218 163.17 431.902 161.095 444.689C159.019 457.476 167.703 469.525 180.49 471.6C193.277 473.675 205.326 464.992 207.401 452.205Z" fill="#D8284E"/>
<path d="M297.468 465.027C306.628 455.867 306.628 441.016 297.468 431.856C288.308 422.696 273.457 422.696 264.297 431.856C255.137 441.016 255.137 455.867 264.297 465.027C273.457 474.187 288.308 474.187 297.468 465.027Z" fill="#D8284E"/>
<path d="M207.402 549.53C209.477 536.743 200.793 524.694 188.006 522.619C175.219 520.544 163.171 529.227 161.095 542.015C159.02 554.802 167.704 566.85 180.491 568.925C193.278 571.001 205.326 562.317 207.402 549.53Z" fill="#D8284E"/>
<path d="M297.467 562.35C306.627 553.19 306.627 538.338 297.467 529.178C288.308 520.018 273.456 520.018 264.296 529.178C255.136 538.338 255.136 553.19 264.296 562.35C273.456 571.509 288.307 571.509 297.467 562.35Z" fill="#D8284E"/>
<path d="M137.645 330.74C137.865 325.035 126.241 319.958 111.683 319.398C97.1247 318.839 85.1454 323.01 84.9262 328.714C84.707 334.418 96.3309 339.496 110.889 340.056C125.447 340.615 137.426 336.444 137.645 330.74Z" fill="#D8284E"/>
<path d="M280.883 362.98C281.102 357.276 269.478 352.198 254.92 351.638C240.363 351.079 228.383 355.25 228.164 360.954C227.945 366.659 239.569 371.736 254.127 372.296C268.685 372.855 280.664 368.684 280.883 362.98Z" fill="#D8284E"/>
<path d="M209.264 346.461C209.483 340.756 197.859 335.678 183.301 335.119C168.743 334.56 156.764 338.73 156.545 344.435C156.325 350.139 167.949 355.217 182.507 355.777C197.065 356.336 209.045 352.165 209.264 346.461Z" fill="#D8284E"/>
<path d="M68.726 419.022C74.2957 417.771 76.2232 405.234 73.0314 391.02C69.8395 376.806 62.7368 366.297 57.1671 367.548C51.5974 368.798 49.6698 381.335 52.8617 395.549C56.0536 409.763 63.1563 420.272 68.726 419.022Z" fill="#D8284E"/>
<path d="M91.4062 537.115C96.9759 535.864 98.9035 523.327 95.7116 509.113C92.5197 494.899 85.417 484.39 79.8473 485.64C74.2776 486.891 72.35 499.428 75.5419 513.642C78.7338 527.856 85.8365 538.365 91.4062 537.115Z" fill="#D8284E"/>
<path d="M134.929 177.468L305.371 302.368L186.467 324.997L16.0134 200.088L134.929 177.468Z" fill="#F2F0DA"/>
<path d="M259.846 7.02289L134.933 177.475L305.374 302.378L430.286 131.926L259.846 7.02289Z" fill="#F2F0DA"/>
<path d="M259.838 7.01379L134.929 177.468L16.0134 200.088L140.914 29.6456L259.838 7.01379Z" fill="#F2F0DA"/>
<path d="M186.467 332.01C184.988 332.01 183.533 331.542 182.322 330.654L11.8681 205.745C9.61597 204.095 8.55712 201.266 9.17297 198.543C9.78792 195.819 11.9604 193.72 14.7025 193.198L133.618 170.578C135.53 170.221 137.505 170.663 139.074 171.81L309.516 296.711C311.768 298.361 312.827 301.19 312.211 303.913C311.596 306.636 309.424 308.736 306.682 309.258L187.777 331.887C187.343 331.969 186.904 332.01 186.467 332.01ZM33.1677 203.965L188.152 317.537L288.218 298.493L133.243 184.928L33.1677 203.965Z" fill="#3C0C47"/>
<path d="M305.371 309.382C303.89 309.382 302.436 308.912 301.226 308.025L130.783 183.125C127.66 180.835 126.983 176.448 129.272 173.323L254.18 2.86804C255.28 1.36665 256.93 0.365258 258.768 0.0819926C260.61 -0.201725 262.482 0.257564 263.983 1.35578L434.425 126.256C437.549 128.546 438.226 132.934 435.937 136.058L311.028 306.513C309.928 308.015 308.278 309.016 306.44 309.299C306.084 309.354 305.726 309.382 305.371 309.382ZM144.731 175.956L303.859 292.566L420.478 133.424L261.349 16.815L144.731 175.956Z" fill="#3C0C47"/>
<path d="M16.012 207.102C13.6368 207.102 11.3833 205.892 10.0829 203.832C8.54482 201.397 8.65342 198.267 10.3562 195.943L135.257 25.5012C136.306 24.0686 137.859 23.0889 139.603 22.7563L258.526 0.123656C261.355 -0.413461 264.229 0.833182 265.767 3.26854C267.306 5.70525 267.197 8.83519 265.494 11.1583L140.586 181.613C139.536 183.045 137.983 184.026 136.239 184.358L17.3242 206.978C16.8857 207.062 16.4468 207.102 16.012 207.102ZM144.938 36.0196L32.1952 189.871L130.904 171.095L243.654 17.2322L144.938 36.0196Z" fill="#3C0C47"/>
<path d="M239.637 175.678C246.74 164.844 243.716 150.304 232.882 143.201C222.048 136.098 207.508 139.123 200.405 149.957C193.302 160.79 196.327 175.331 207.161 182.433C217.994 189.536 232.535 186.512 239.637 175.678Z" fill="#D8284E"/>
<path d="M293.717 101.422C302.877 92.2624 302.877 77.4112 293.717 68.2512C284.557 59.0912 269.706 59.0913 260.546 68.2512C251.386 77.4112 251.386 92.2624 260.546 101.422C269.706 110.582 284.557 110.582 293.717 101.422Z" fill="#D8284E"/>
<path d="M319.96 229.846C325.219 218.007 319.885 204.147 308.046 198.887C296.207 193.628 282.346 198.961 277.087 210.8C271.828 222.639 277.161 236.5 289 241.76C300.839 247.019 314.7 241.685 319.96 229.846Z" fill="#D8284E"/>
<path d="M372.219 158.949C381.379 149.789 381.379 134.938 372.219 125.778C363.059 116.618 348.207 116.618 339.048 125.778C329.888 134.938 329.888 149.789 339.048 158.949C348.207 168.109 363.059 168.109 372.219 158.949Z" fill="#D8284E"/>
<path d="M89.2672 157.927C98.3242 146.516 102.042 134.389 97.5702 130.84C93.0988 127.291 82.1318 133.664 73.0748 145.076C64.0177 156.487 60.3003 168.615 64.7717 172.163C69.2431 175.712 80.2101 169.339 89.2672 157.927Z" fill="#D8284E"/>
<path d="M199.95 61.4421C209.007 50.0308 212.725 37.9032 208.253 34.3543C203.782 30.8053 192.815 37.179 183.758 48.5903C174.701 60.0015 170.983 72.1292 175.455 75.6781C179.926 79.227 190.893 72.8533 199.95 61.4421Z" fill="#D8284E"/>
<path d="M144.287 109.449C153.344 98.0376 157.061 85.91 152.59 82.3611C148.119 78.8122 137.152 85.1859 128.095 96.5971C119.037 108.008 115.32 120.136 119.792 123.685C124.263 127.234 135.23 120.86 144.287 109.449Z" fill="#D8284E"/>
<path d="M127.998 238.585C130.281 233.353 121.309 224.388 107.957 218.561C94.6052 212.734 81.9305 212.251 79.6471 217.483C77.3637 222.714 86.3364 231.68 99.6882 237.507C113.04 243.334 125.715 243.817 127.998 238.585Z" fill="#D8284E"/>
<path d="M236.66 290.097C238.943 284.865 229.97 275.9 216.619 270.073C203.267 264.245 190.592 263.763 188.309 268.994C186.025 274.226 194.998 283.191 208.35 289.019C221.702 294.846 234.376 295.329 236.66 290.097Z" fill="#D8284E"/>
<path d="M303.838 168.079C312.998 158.919 312.998 144.068 303.838 134.908C294.678 125.748 279.827 125.748 270.667 134.908C261.507 144.068 261.507 158.919 270.667 168.079C279.827 177.239 294.678 177.239 303.838 168.079Z" fill="#D8284E"/>
</svg>
